<svg width="20" height="20" viewBox="0 0 20 20" fill="none" xmlns="http://www.w3.org/2000/svg">
<path d="M17.0708 0L2.93017 0C1.31488 0 0.000488281 1.31439 0.000488281 2.92969L0.000488281 17.0703C0.000488281 18.6856 1.31488 20 2.93017 20L8.82861 20L8.82861 12.9297L6.48486 12.9297L6.48486 9.41406L8.82861 9.41406L8.82861 7.03124C8.82861 5.09262 10.4056 3.51562 12.3442 3.51562L15.8989 3.51562L15.8989 7.03124L12.3442 7.03124L12.3442 9.41406L15.8989 9.41406L15.313 12.9297L12.3442 12.9297L12.3442 20L17.0708 20C18.6861 20 20.0005 18.6856 20.0005 17.0703L20.0005 2.92969C20.0005 1.31439 18.6861 0 17.0708 0Z" fill="#FFEACE"/>
</svg>
